<?xml version="1.0" encoding="UTF-8"?>
<svg id="Layer_2" data-name="Layer 2" xmlns="http://www.w3.org/2000/svg" xmlns:xlink="http://www.w3.org/1999/xlink" viewBox="0 0 4010.54 760.08">
  <defs>
    <style>
      .cls-1 {
        fill: url(#linear-gradient);
      }

      .cls-1, .cls-2, .cls-3 {
        stroke-width: 0px;
      }

      .cls-2 {
        fill: #b3ea11;
      }

      .cls-3 {
        fill: #212529;
      }
    </style>
    <linearGradient id="linear-gradient" x1="-160.47" y1="600.32" x2="971.38" y2="600.32" gradientTransform="translate(164.58 -177.22) scale(.94)" gradientUnits="userSpaceOnUse">
      <stop offset=".1" stop-color="#754fa2"/>
      <stop offset="1" stop-color="#904794"/>
    </linearGradient>
  </defs>
  <g id="Layer_1-2" data-name="Layer 1">
    <g>
      <path class="cls-3" d="m1407.37,230.43c81.6,0,137.6,41.6,163.2,87.2v-80h73.6v438.4h-73.6v-81.6c-26.4,47.2-83.2,88.8-164,88.8-116.8,0-207.2-92-207.2-228s90.4-224.8,208-224.8Zm14.4,63.2c-80,0-148,58.4-148,161.6s68,164,148,164,148.8-60,148.8-163.2-68.8-162.4-148.8-162.4Z"/>
      <path class="cls-3" d="m1780.97,297.63h-56.8v-60h56.8v-31.2c0-97.6,48-141.6,160-141.6v60.8c-65.6,0-87.2,24-87.2,80.8v31.2h92v60h-92v378.4h-72.8v-378.4Z"/>
      <path class="cls-3" d="m2044.16,297.63h-56.8v-60h56.8v-31.2c0-97.6,48-141.6,160-141.6v60.8c-65.6,0-87.2,24-87.2,80.8v31.2h92v60h-92v378.4h-72.8v-378.4Z"/>
      <path class="cls-3" d="m2483.36,683.24c-124.8,0-216.8-88-216.8-227.2s88.8-225.6,216.8-225.6,210.4,89.6,210.4,209.6c0,16-.8,28.8-2.4,44h-350.4c5.6,88.8,68,137.6,142.4,137.6,65.6,0,107.2-33.6,123.2-80.8h78.4c-22.4,80-92.8,142.4-201.6,142.4Zm-141.6-258.4h276.8c.8-85.6-63.2-132.8-138.4-132.8-71.2,0-130.4,47.2-138.4,132.8Z"/>
      <path class="cls-3" d="m2789.76,84.03h72.8v592h-72.8V84.03Z"/>
      <path class="cls-3" d="m2974.55,116.83c0-28,21.6-49.6,49.6-49.6,26.4,0,48,21.6,48,49.6s-21.6,49.6-48,49.6c-28,0-49.6-21.6-49.6-49.6Zm12,120.8h72.8v438.4h-72.8V237.63Z"/>
      <path class="cls-3" d="m3374.54,683.24c-124,0-218.4-88-218.4-227.2s97.6-225.6,221.6-225.6,221.6,87.2,221.6,225.6-100,227.2-224.8,227.2Zm0-64c76,0,150.4-52,150.4-163.2s-72.8-162.4-148-162.4-146.4,52-146.4,162.4,68,163.2,144,163.2Z"/>
      <path class="cls-3" d="m3850.53,683.24c-102.4,0-174.4-56-179.2-136h75.2c4,42.4,41.6,74.4,103.2,74.4,57.6,0,89.6-28.8,89.6-64.8,0-97.6-259.2-40.8-259.2-204,0-67.2,63.2-122.4,160.8-122.4s160.8,52,165.6,137.6h-72.8c-3.2-44-36.8-76-95.2-76-53.6,0-85.6,25.6-85.6,60.8,0,104,254.4,47.2,257.6,204,0,72-63.2,126.4-160,126.4Z"/>
    </g>
    <ellipse class="cls-2" cx="742.58" cy="354.37" rx="50.97" ry="50.53"/>
    <path class="cls-1" d="m1164.93,167.43c-.02.36-.03.72-.04,1.09.01.01.01.03,0,.04,0,.28-.03.57-.06.85.01.01.01.03,0,.04.01.03.01.07,0,.12,0,0,0,.01-.02.03-4.01,54.45-82.44,128.44-206.48,204.65l.06,1.85v.24s.02,0,.02-.01c.03,1.23.03,2.45.03,3.69,0,209.88-171.64,380.04-383.36,380.04-99.05,0-189.3-37.26-257.33-98.39l98.31-21.93c46.37,27.96,100.79,44.06,159.02,44.06,154.96,0,283.06-114.01,303.58-262.04-.05.03-.08.04-.12.06,2.87-12.47,4.38-25.47,4.38-38.81,0-10.2-.89-20.19-2.58-29.93-5.9-66.41-33.35-126.7-75.38-173.94-14.48-16.29-30.7-31.02-48.39-43.92-50.8-37.09-113.57-58.99-181.48-58.99-149.9,0-274.68,106.71-301.22,247.68-3.43,18.19-5.22,36.94-5.22,56.11,0,2.27.03,4.53.09,6.79-26.69,14.33-51.42,28.49-73.84,42.3-95.71,58.95-149.77,111.52-138.22,142.5,11.51,30.95,86.18,34.19,196.21,14.37,25.51-4.61,52.93-10.44,81.9-17.47,70.06-16.96,149.24-40.91,232.56-70.93.36-29,24.19-52.4,53.53-52.4s53.55,23.77,53.55,53.08-23.98,53.08-53.55,53.08c-8.62,0-16.76-2.02-23.97-5.61-77.13,27.7-151.64,49.7-220.3,65.71l-90.55,18.2c-153.48,25.56-263.34,14.3-282.93-38.34-19.66-52.81,56.04-135.29,188.71-219.29C196.08,165.83,366.02,0,575.07,0c107.52,0,204.69,43.87,274.3,114.56,14.02,14.22,26.9,29.53,38.54,45.78,33.33,46.55,56.35,100.86,65.75,159.67.03.06.03.13.03.21,93.15-56.12,149.86-107.02,149.86-139.84,0-.61-.01-1.24-.06-1.84-.01-.24-.03-.48-.06-.7-.03-.3-.06-.58-.09-.88-.21-1.94-.66-3.81-1.33-5.62-10.53-28.28-73.86-33.43-168.73-18.94l-35.41-45.89c143.53-21.54,245.25-9.11,264.03,41.34,1.81,4.86,2.81,9.99,3.03,15.33.06,1.41.06,2.83,0,4.25Z"/>
    <ellipse class="cls-2" cx="666.59" cy="211.54" rx="35.75" ry="35.44"/>
  </g>
</svg>